<?xml version="1.0" encoding="utf-8"?>
<!-- Generator: Adobe Illustrator 16.0.0, SVG Export Plug-In . SVG Version: 6.00 Build 0)  -->
<!DOCTYPE svg PUBLIC "-//W3C//DTD SVG 1.1//EN" "http://www.w3.org/Graphics/SVG/1.1/DTD/svg11.dtd">
<svg version="1.1" id="Layer_1" xmlns="http://www.w3.org/2000/svg" xmlns:xlink="http://www.w3.org/1999/xlink" x="0px" y="0px"
	 width="728.64px" height="174.24px" viewBox="0 0 728.64 174.24" enable-background="new 0 0 728.64 174.24" xml:space="preserve">
<path fill="#FFFFFF" d="M364.361,0c-48.115,0-87.16,39.006-87.16,87.12s39.045,87.12,87.16,87.12c48.113,0,87.08-39.006,87.08-87.12
	S412.474,0,364.361,0L364.361,0z M87.16,0C39.046,0,0,39.006,0,87.12s39.045,87.12,87.16,87.12s87.08-39.046,87.08-87.12
	S135.275,0,87.16,0z M641.56,0c-48.113,0-87.16,39.006-87.16,87.12s39.047,87.12,87.16,87.12s87.08-39.006,87.08-87.12
	S689.673,0,641.56,0z"/>
</svg>
