<svg xmlns="http://www.w3.org/2000/svg" width="474.749" height="1050.08" viewBox="-0.869 0 474.749 1050.08" enable-background="new -0.869 0 474.749 1050.08"><path fill="#fff" d="M222.644 12.196C218.53 16.1 118.82 118.81 118.82 118.81H29.803c-16.4 0-29.672 13.27-29.672 29.672V326.52c0 16.4 13.273 29.67 29.673 29.67h89.015s99.71 102.71 103.824 106.614c19.816 20.91 44.533 14.265 44.533-14.81V27.006c0-29.072-24.717-35.72-44.533-14.81h.002zM467.32 274.704c3.887 3.89 3.887 10.256 0 14.146l-30.11 30.13c-3.89 3.89-10.25 3.89-14.14 0l-30.136-30.132c-3.89-3.89-10.254-3.89-14.144 0l-30.13 30.132c-3.89 3.89-10.252 3.89-14.14 0l-30.11-30.13c-3.888-3.89-3.888-10.257 0-14.147l30.11-30.13c3.888-3.89 3.888-10.257 0-14.147l-30.11-30.13c-3.888-3.89-3.888-10.255 0-14.145l30.11-30.13c3.888-3.89 10.25-3.89 14.14 0l30.133 30.133c3.89 3.89 10.254 3.89 14.144 0l30.136-30.135c3.89-3.89 10.25-3.89 14.14 0l30.11 30.13c3.887 3.89 3.887 10.257-.002 14.147l-30.11 30.13c-3.887 3.89-3.887 10.256 0 14.145l30.11 30.134zM221.644 587.273c-4.114 3.904-103.824 106.615-103.824 106.615H28.803c-16.4 0-29.672 13.27-29.672 29.672v178.037c0 16.4 13.273 29.67 29.673 29.67h89.015s99.71 102.71 103.824 106.614c19.816 20.91 44.533 14.266 44.533-14.81V602.085c0-29.072-24.717-35.72-44.533-14.81h.002zm74.207 276.415v.664l42.227 42.226c28.412-21.57 46.79-55.55 46.79-94.003s-18.378-72.434-46.79-94.002L295.85 760.8v.66c17.677 10.29 29.673 29.21 29.673 51.116s-12 40.826-29.672 51.112zm69.958 70.62l42.17 42.17c40.81-42.55 65.902-100.253 65.902-163.903 0-63.653-25.096-121.35-65.91-163.896l-42.166 42.163c30.175 31.693 48.732 74.438 48.732 121.73 0 47.31-18.556 90.05-48.728 121.736z"/></svg>