<svg xmlns="http://www.w3.org/2000/svg" width="474.748" height="475" viewBox="0.132 0 474.748 475" enable-background="new 0.132 0 474.748 475"><g fill="#fff"><path d="M222.644 12.196C218.53 16.1 118.82 118.81 118.82 118.81H29.803c-16.4 0-29.672 13.27-29.672 29.672V326.52c0 16.4 13.272 29.67 29.672 29.67h89.015s99.71 102.71 103.824 106.614c19.816 20.91 44.533 14.264 44.533-14.81V27.006c0-29.072-24.717-35.72-44.533-14.81zM296.85 288.61v.663l42.226 42.226c28.412-21.57 46.79-55.55 46.79-94.003s-18.378-72.434-46.79-94.002L296.85 185.72v.662c17.676 10.288 29.672 29.21 29.672 51.115 0 21.906-11.997 40.827-29.672 51.113zM366.808 359.23l42.17 42.17c40.81-42.55 65.902-100.254 65.902-163.904 0-63.653-25.096-121.35-65.91-163.897l-42.166 42.165c30.175 31.693 48.732 74.438 48.732 121.73 0 47.31-18.556 90.05-48.728 121.736z"/></g></svg>