<svg xmlns="http://www.w3.org/2000/svg" width="474.748" height="475" viewBox="0.132 0 474.748 475" enable-background="new 0.132 0 474.748 475"><path fill="#fff" d="M222.644 12.196C218.53 16.1 118.82 118.81 118.82 118.81H29.803c-16.4 0-29.672 13.27-29.672 29.672V326.52c0 16.4 13.272 29.67 29.672 29.67h89.015s99.71 102.71 103.824 106.614c19.816 20.91 44.533 14.264 44.533-14.81V27.006c0-29.072-24.717-35.72-44.533-14.81zM467.32 274.704c3.887 3.89 3.887 10.256 0 14.146l-30.11 30.13c-3.89 3.89-10.25 3.89-14.14 0l-30.136-30.132c-3.89-3.89-10.253-3.89-14.143 0L348.66 318.98c-3.89 3.89-10.252 3.89-14.14 0l-30.11-30.13c-3.887-3.89-3.887-10.256 0-14.146l30.11-30.13c3.888-3.89 3.888-10.257 0-14.147l-30.11-30.13c-3.887-3.89-3.887-10.255 0-14.145l30.11-30.13c3.888-3.89 10.25-3.89 14.14-.002l30.133 30.134c3.89 3.89 10.254 3.89 14.144 0l30.135-30.135c3.89-3.89 10.25-3.89 14.14 0l30.11 30.13c3.887 3.89 3.887 10.257-.002 14.147l-30.11 30.13c-3.888 3.89-3.888 10.255 0 14.145l30.11 30.132z"/></svg>