<?xml version="1.0" encoding="utf-8"?>
<!-- Generator: Adobe Illustrator 16.0.0, SVG Export Plug-In . SVG Version: 6.00 Build 0)  -->
<!DOCTYPE svg PUBLIC "-//W3C//DTD SVG 1.1//EN" "http://www.w3.org/Graphics/SVG/1.1/DTD/svg11.dtd">
<svg version="1.1" id="Layer_1" xmlns="http://www.w3.org/2000/svg" xmlns:xlink="http://www.w3.org/1999/xlink" x="0px" y="0px"
	 width="484.254px" height="484.254px" viewBox="0 0 484.254 484.254" enable-background="new 0 0 484.254 484.254"
	 xml:space="preserve">
<path fill="#FFFFFF" d="M469.024,395.482L469.024,395.482L315.667,242.126L469.024,88.769c20.307-20.308,20.307-53.231-0.002-73.539
	c-20.307-20.307-53.23-20.308-73.537,0L242.127,168.587L88.769,15.23c-20.307-20.308-53.23-20.307-73.537,0
	C-5.077,35.538-5.077,68.461,15.23,88.769l153.357,153.357L15.231,395.482h0c-20.307,20.309-20.307,53.232,0,73.541
	c20.307,20.307,53.232,20.307,73.539,0l153.357-153.357l153.358,153.357c20.307,20.307,53.231,20.307,73.539,0
	C489.331,448.715,489.331,415.791,469.024,395.482z"/>
</svg>
